<?xml version="1.0" standalone="no"?>
<!DOCTYPE svg PUBLIC "-//W3C//DTD SVG 20010904//EN"
 "http://www.w3.org/TR/2001/REC-SVG-20010904/DTD/svg10.dtd">
<svg version="1.0" xmlns="http://www.w3.org/2000/svg"
 width="512.000000pt" height="512.000000pt" viewBox="0 0 512.000000 512.000000"
 preserveAspectRatio="xMidYMid meet">
<metadata>
Created by potrace 1.14, written by Peter Selinger 2001-2017
</metadata>
<g transform="translate(0.000000,512.000000) scale(0.100000,-0.100000)"
fill="#000000" stroke="none">
<path d="M450 3350 l0 -220 305 0 305 0 0 -790 0 -790 270 0 270 0 0 790 0
790 300 0 300 0 0 220 0 220 -875 0 -875 0 0 -220z"/>
<path d="M2360 2560 l0 -1010 265 0 265 0 0 590 c0 325 3 590 8 590 4 0 108
-261 232 -580 l225 -580 163 2 164 3 222 567 c121 312 224 570 229 574 4 4 7
-257 7 -579 l0 -587 270 0 270 0 0 1010 0 1010 -342 -2 -342 -3 -231 -565
c-147 -357 -238 -566 -247 -568 -11 -2 -75 145 -248 568 l-234 570 -338 0
-338 0 0 -1010z"/>
</g>
</svg>
